<?xml version="1.0" encoding="utf-8"?>
<!-- Generator: Adobe Illustrator 27.0.1, SVG Export Plug-In . SVG Version: 6.00 Build 0)  -->
<svg version="1.1" id="Calque_1" xmlns="http://www.w3.org/2000/svg" xmlns:xlink="http://www.w3.org/1999/xlink" x="0px" y="0px"
	 viewBox="0 0 50 66" style="enable-background:new 0 0 50 66;" xml:space="preserve">
<style type="text/css">
	.st0{fill:#00AF9D;}
	.st1{fill:#F5F5F5;}
</style>
<polyline class="st0" points="0,66 0,0 50,0 50,66 "/>
<g>
	<path class="st1" d="M4.17,27.26l2.44,3.77l2.44-3.77h1.19v7.5H8.95v-5.03l-2.35,3.57l-2.35-3.57v5.03H2.98v-7.5H4.17z"/>
	<path class="st1" d="M14.01,27.26h1.31l2.91,7.5h-1.3l-0.69-1.78h-3.17l-0.69,1.78h-1.3L14.01,27.26z M13.54,31.8h2.25l-1.12-2.92
		L13.54,31.8z"/>
	<path class="st1" d="M19.09,27.26h2.55c1.49,0,2.49,1.03,2.49,2.4c0,1.37-1,2.4-2.49,2.4h-1.26v2.7h-1.29V27.26z M22.82,29.66
		c0-0.71-0.46-1.18-1.34-1.18h-1.1v2.36h1.1C22.36,30.84,22.82,30.36,22.82,29.66z"/>
	<path class="st1" d="M6.12,44.8H4.83v-2.96L2.27,37.3h1.41l1.83,3.35l1.83-3.35h1.33l-2.56,4.54V44.8z"/>
	<path class="st1" d="M16.47,41.05c0,2.22-1.61,3.88-3.79,3.88s-3.79-1.66-3.79-3.88c0-2.22,1.61-3.88,3.79-3.88
		S16.47,38.83,16.47,41.05z M15.17,41.05c0-1.45-0.97-2.66-2.49-2.66s-2.49,1.21-2.49,2.66c0,1.45,0.97,2.66,2.49,2.66
		S15.17,42.5,15.17,41.05z"/>
	<path class="st1" d="M22.13,37.3h1.29v4.78c0,1.65-1.12,2.85-2.89,2.85c-1.77,0-2.89-1.2-2.89-2.85V37.3h1.29c0,0,0,2.14,0,4.62
		c0,1.07,0.54,1.79,1.61,1.79c1.06,0,1.61-0.72,1.61-1.79C22.13,39.44,22.13,37.3,22.13,37.3z"/>
	<path class="st1" d="M25,37.3h2.46c1.49,0,2.49,0.96,2.49,2.34c0,1.12-0.6,1.98-1.67,2.25l1.87,2.91h-1.5l-1.78-2.83h-0.59v2.83H25
		V37.3z M28.65,39.64c0-0.74-0.51-1.11-1.34-1.11h-1.02v2.23h1.02C28.13,40.75,28.65,40.38,28.65,39.64z"/>
	<path class="st1" d="M2.98,47.35h2.55c1.49,0,2.49,1.03,2.49,2.4s-1,2.4-2.49,2.4H4.26v2.7H2.98V47.35z M6.7,49.74
		c0-0.71-0.46-1.18-1.34-1.18h-1.1v2.36h1.1C6.24,50.92,6.7,50.45,6.7,49.74z"/>
	<path class="st1" d="M9.04,47.35h2.46c1.49,0,2.49,0.96,2.49,2.34c0,1.12-0.6,1.98-1.67,2.25l1.87,2.91h-1.5l-1.78-2.83h-0.59v2.83
		H9.04V47.35z M12.68,49.68c0-0.74-0.51-1.11-1.34-1.11h-1.02v2.23h1.02C12.17,50.79,12.68,50.42,12.68,49.68z"/>
	<path class="st1" d="M22.44,51.09c0,2.22-1.61,3.88-3.79,3.88s-3.79-1.66-3.79-3.88c0-2.22,1.61-3.88,3.79-3.88
		S22.44,48.88,22.44,51.09z M21.14,51.09c0-1.45-0.97-2.66-2.49-2.66c-1.51,0-2.49,1.21-2.49,2.66s0.97,2.66,2.49,2.66
		C20.16,53.75,21.14,52.54,21.14,51.09z"/>
	<path class="st1" d="M26.31,47.35h1.29v5.14c0,1.57-0.97,2.49-2.56,2.49c-1.5,0-2.2-1.25-2.2-1.25l0.94-0.79
		c0,0,0.47,0.82,1.25,0.82c0.99,0,1.27-0.64,1.27-1.22C26.31,50.06,26.31,47.35,26.31,47.35z"/>
	<path class="st1" d="M30.47,50.39h3v1.22h-3v2.01h3.32v1.22h-4.61v-7.5h4.54v1.22h-3.26V50.39z"/>
	<path class="st1" d="M40.43,52.85l0.86,0.85c0,0-0.99,1.27-2.88,1.27c-2.16,0-3.8-1.66-3.8-3.88c0-2.22,1.64-3.88,3.8-3.88
		c1.8,0,2.77,1.18,2.77,1.18l-0.87,0.85c0,0-0.67-0.82-1.91-0.82c-1.48,0-2.5,1.23-2.5,2.68s1.02,2.68,2.5,2.68
		C39.72,53.77,40.43,52.85,40.43,52.85z"/>
	<path class="st1" d="M43.7,48.57h-2.07v-1.22h5.42v1.22h-2.07v6.28H43.7V48.57z"/>
</g>
</svg>
