<?xml version="1.0" encoding="UTF-8"?>
<svg id="Calque_1" data-name="Calque 1" xmlns="http://www.w3.org/2000/svg" viewBox="0 0 99.9 48.7">
  <defs>
    <style>
      .cls-1 {
        fill: #d1d1d1;
      }
    </style>
  </defs>
  <path class="cls-1" d="M.4,48.7H99.5c.2,0,.4-.2,.4-.4v-2.5c0-.2-.2-.4-.4-.4h-7v-6.8c0-.2-.2-.4-.4-.4h-2.6v-8.4h2.6c.2,0,.4-.2,.4-.4v-3.2h7c.2,0,.4-.2,.4-.4v-7.5c0-.2-.2-.4-.4-.4h-15.5v-4.3h4.5c.2,0,.4-.2,.4-.4V5.9c0-.2-.2-.4-.4-.4H53.5V.4c0-.2-.2-.4-.4-.4H2.6c-.2,0-.4,.2-.4,.4V7.6c0,.2,.2,.4,.4,.4h2.2v10H2.6c-.2,0-.4,.2-.4,.4v7.2c0,.2,.2,.4,.4,.4h7.4v19.2H.4c-.2,0-.4,.2-.4,.4v2.5c0,.4,.2,.6,.4,.6Zm91.3-9.7v6.4H57.8v-6.4h33.9Zm-34.3-.9c-.2,0-.4,.2-.4,.4v6.8h-2.7v-15.6h7.7v8.4h-4.6Zm5.4,0v-8.4h.8v8.4h-.8Zm1.6,0v-8.4h7.7v8.4h-7.7Zm8.5,0v-8.4h.8v8.4h-.8Zm1.6,0v-8.4h7.7v8.4h-7.7Zm8.5,0v-8.4h.8v8.4h-.8Zm1.6,0v-8.4h4.1v8.4h-4.1ZM53.6,6.4h34.5v6.3h-26.1c-.2,0-.4,.2-.4,.4v10.2c0,.2,.2,.4,.4,.4h21.6c.2,0,.4-.2,.4-.4v-4.7h15.1v6.7H53.6V6.4Zm29.6,7.1v9.4h-20.8V13.5h20.8Zm-30,12.6h38.5v2.8H24.1c-.2,0-.4,.2-.4,.4v16H10.8V26.1s42.4,0,42.4,0Zm.3,3.6v15.6h-.8v-15.6s.8,0,.8,0Zm-1.6,0v15.6h-7.7v-15.6s7.7,0,7.7,0Zm-8.5,0v15.6h-.8v-15.6s.8,0,.8,0Zm-1.6,0v15.6h-7.7v-15.6s7.7,0,7.7,0Zm-8.5,0v15.6h-.8v-15.6s.8,0,.8,0Zm-1.6,0v15.6h-7.2v-15.6s7.2,0,7.2,0ZM3,25.3v-6.4H43.3c.2,0,.4-.2,.4-.4V7.6c0-.2-.2-.4-.4-.4H3V.8H52.8V25.2H3s0,.1,0,.1Zm2.6-7.3V8H42.9v10H5.6ZM.8,46.2H99.1v1.7H.8v-1.7Z"/>
  <path class="cls-1" d="M13.1,8.5c-.2,0-.4,.2-.4,.4v7.8c0,.2,.2,.4,.4,.4s.4-.2,.4-.4v-7.8c0-.2-.2-.4-.4-.4Z"/>
  <path class="cls-1" d="M22.6,8.5c-.2,0-.4,.2-.4,.4v7.8c0,.2,.2,.4,.4,.4s.4-.2,.4-.4v-7.8c0-.2-.2-.4-.4-.4Z"/>
  <path class="cls-1" d="M32.1,8.5c-.2,0-.4,.2-.4,.4v7.8c0,.2,.2,.4,.4,.4s.4-.2,.4-.4v-7.8c0-.2-.1-.4-.4-.4Z"/>
  <path class="cls-1" d="M68.4,22.4c.2,0,.4-.2,.4-.4v-7.6c0-.2-.2-.4-.4-.4s-.4,.2-.4,.4v7.6c0,.2,.2,.4,.4,.4Z"/>
  <path class="cls-1" d="M76,22.4c.2,0,.4-.2,.4-.4v-7.6c0-.2-.2-.4-.4-.4s-.4,.2-.4,.4v7.6c0,.2,.1,.4,.4,.4Z"/>
  <path class="cls-1" d="M26.5,35.7c.1,0,.2,0,.3-.1l3.3-3.3c.2-.2,.2-.4,0-.6s-.4-.2-.6,0l-3.3,3.3c-.2,.2-.2,.4,0,.6,.1,0,.2,.1,.3,.1Z"/>
  <path class="cls-1" d="M47.4,42.8c.1,0,.2,0,.3-.1l3.3-3.3c.2-.2,.2-.4,0-.6-.2-.2-.4-.2-.6,0l-3.3,3.3c-.2,.2-.2,.4,0,.6,.1,.1,.2,.1,.3,.1Z"/>
  <path class="cls-1" d="M35.6,43.7c.1,0,.2,0,.3-.1l3.6-3.6c.2-.2,.2-.4,0-.6-.2-.2-.4-.2-.6,0l-3.6,3.6c-.2,.2-.2,.4,0,.6,.1,0,.2,.1,.3,.1Z"/>
  <path class="cls-1" d="M59.8,31.7c-.2-.2-.4-.2-.6,0l-4.2,4.2c-.2,.2-.2,.4,0,.6,.1,.1,.2,.1,.3,.1s.2,0,.3-.1l4.2-4.2c.2-.2,.2-.5,0-.6Z"/>
  <path class="cls-1" d="M60.2,33.8l-1.5,1.5c-.2,.2-.2,.4,0,.6,.1,.1,.2,.1,.3,.1s.2,0,.3-.1l1.5-1.5c.2-.2,.2-.4,0-.6-.2-.2-.5-.2-.6,0Z"/>
  <path class="cls-1" d="M70.9,31.7l-3,3c-.2,.2-.2,.4,0,.6,.1,.1,.2,.1,.3,.1s.2,0,.3-.1l3-3c.2-.2,.2-.4,0-.6s-.4-.2-.6,0Z"/>
  <path class="cls-1" d="M78.3,32.7l-2.2,2.2c-.2,.2-.2,.4,0,.6,.1,.1,.2,.1,.3,.1s.2,0,.3-.1l2.2-2.2c.2-.2,.2-.4,0-.6-.2-.1-.4-.1-.6,0Z"/>
</svg>