<?xml version="1.0" encoding="UTF-8"?>
<svg id="Calque_1" data-name="Calque 1" xmlns="http://www.w3.org/2000/svg" viewBox="0 0 50 66">
  <defs>
    <style>
      .cls-1 {
        fill: #00af9d;
      }

      .cls-2 {
        fill: #f4f4f4;
      }
    </style>
  </defs>
  <polyline class="cls-2" points="0 66 0 0 50 0 50 66"/>
  <g>
    <path class="cls-1" d="M4.17,27.26l2.44,3.77,2.44-3.77h1.19v7.5h-1.29v-5.03l-2.35,3.57-2.35-3.57v5.03h-1.29v-7.5h1.19Z"/>
    <path class="cls-1" d="M14.01,27.26h1.31l2.91,7.5h-1.3l-.69-1.78h-3.17l-.69,1.78h-1.3l2.91-7.5Zm-.47,4.54h2.25l-1.12-2.92-1.12,2.92Z"/>
    <path class="cls-1" d="M19.09,27.26h2.55c1.49,0,2.49,1.03,2.49,2.4s-1,2.4-2.49,2.4h-1.26v2.7h-1.29v-7.5Zm3.73,2.4c0-.71-.46-1.18-1.34-1.18h-1.1v2.36h1.1c.88,0,1.34-.47,1.34-1.18Z"/>
    <path class="cls-1" d="M6.12,44.8h-1.29v-2.96l-2.56-4.54h1.41l1.83,3.35,1.83-3.35h1.33l-2.56,4.54v2.96Z"/>
    <path class="cls-1" d="M16.47,41.05c0,2.22-1.61,3.88-3.79,3.88s-3.79-1.66-3.79-3.88,1.61-3.88,3.79-3.88,3.79,1.66,3.79,3.88Zm-1.31,0c0-1.45-.97-2.66-2.49-2.66s-2.49,1.21-2.49,2.66,.97,2.66,2.49,2.66,2.49-1.21,2.49-2.66Z"/>
    <path class="cls-1" d="M22.13,37.3h1.29v4.78c0,1.65-1.12,2.85-2.89,2.85s-2.89-1.2-2.89-2.85v-4.78h1.29v4.62c0,1.07,.54,1.79,1.61,1.79s1.61-.72,1.61-1.79v-4.62Z"/>
    <path class="cls-1" d="M25,37.3h2.46c1.49,0,2.49,.96,2.49,2.34,0,1.12-.6,1.98-1.67,2.25l1.87,2.91h-1.5l-1.78-2.83h-.59v2.83h-1.29v-7.5Zm3.64,2.34c0-.74-.51-1.11-1.34-1.11h-1.02v2.23h1.02c.82,0,1.34-.38,1.34-1.11Z"/>
    <path class="cls-1" d="M2.98,47.35h2.55c1.49,0,2.49,1.03,2.49,2.4s-1,2.4-2.49,2.4h-1.26v2.7h-1.29v-7.5Zm3.73,2.4c0-.71-.46-1.18-1.34-1.18h-1.1v2.36h1.1c.88,0,1.34-.47,1.34-1.18Z"/>
    <path class="cls-1" d="M9.04,47.35h2.46c1.49,0,2.49,.96,2.49,2.34,0,1.12-.6,1.98-1.67,2.25l1.87,2.91h-1.5l-1.78-2.83h-.59v2.83h-1.29v-7.5Zm3.64,2.34c0-.74-.51-1.11-1.34-1.11h-1.02v2.23h1.02c.82,0,1.34-.38,1.34-1.11Z"/>
    <path class="cls-1" d="M22.44,51.09c0,2.22-1.61,3.88-3.79,3.88s-3.79-1.66-3.79-3.88,1.61-3.88,3.79-3.88,3.79,1.66,3.79,3.88Zm-1.31,0c0-1.45-.97-2.66-2.49-2.66s-2.49,1.21-2.49,2.66,.97,2.66,2.49,2.66,2.49-1.21,2.49-2.66Z"/>
    <path class="cls-1" d="M26.31,47.35h1.29v5.14c0,1.57-.97,2.49-2.56,2.49-1.5,0-2.2-1.25-2.2-1.25l.94-.79s.47,.82,1.25,.82c.99,0,1.27-.64,1.27-1.22v-5.18Z"/>
    <path class="cls-1" d="M30.47,50.39h3v1.22h-3v2.01h3.32v1.22h-4.61v-7.5h4.54v1.22h-3.26v1.82Z"/>
    <path class="cls-1" d="M40.43,52.85l.86,.85s-.99,1.27-2.88,1.27c-2.16,0-3.8-1.66-3.8-3.88s1.64-3.88,3.8-3.88c1.8,0,2.77,1.18,2.77,1.18l-.87,.85s-.67-.82-1.91-.82c-1.48,0-2.5,1.23-2.5,2.68s1.02,2.68,2.5,2.68c1.32,0,2.02-.92,2.02-.92Z"/>
    <path class="cls-1" d="M43.7,48.57h-2.07v-1.22h5.42v1.22h-2.07v6.28h-1.29v-6.28Z"/>
  </g>
</svg>